<?xml version="1.0" standalone="no"?>
<!DOCTYPE svg PUBLIC "-//W3C//DTD SVG 20010904//EN"
 "http://www.w3.org/TR/2001/REC-SVG-20010904/DTD/svg10.dtd">
<svg version="1.0" xmlns="http://www.w3.org/2000/svg"
 width="512.000000pt" height="512.000000pt" viewBox="0 0 512.000000 512.000000"
 preserveAspectRatio="xMidYMid meet">
<metadata>
Created by potrace 1.11, written by Peter Selinger 2001-2013
</metadata>
<g transform="translate(0.000000,512.000000) scale(0.100000,-0.100000)"
fill="#000000" stroke="none">
<path d="M2289 5114 c-9 -3 -24 -20 -34 -38 -21 -39 -15 -76 17 -106 21 -19
34 -20 279 -20 171 0 266 4 283 11 47 22 57 86 21 134 -15 19 -29 20 -283 22
-147 0 -274 -1 -283 -3z"/>
<path d="M2513 4775 c-32 -22 -40 -59 -39 -177 1 -90 -1 -108 -14 -109 -102
-7 -180 -17 -265 -34 -38 -8 -82 -16 -96 -19 -32 -5 -234 -72 -274 -90 -216
-100 -226 -107 -227 -164 0 -42 -2 -44 -75 -94 -41 -27 -104 -74 -139 -104
-35 -30 -66 -54 -68 -54 -3 0 -56 50 -117 111 -92 93 -117 112 -147 116 -67 9
-113 -59 -81 -118 6 -11 44 -54 85 -95 41 -41 74 -78 74 -82 0 -4 -14 -23 -31
-42 -18 -19 -50 -60 -73 -90 -22 -30 -43 -57 -46 -60 -20 -18 -110 -172 -155
-265 -49 -99 -127 -311 -139 -375 -2 -14 -11 -57 -20 -95 -8 -39 -18 -99 -21
-135 -4 -36 -8 -76 -10 -90 -2 -14 -3 -34 -4 -45 -1 -19 -8 -20 -108 -19 -60
0 -121 -4 -136 -9 -40 -13 -61 -49 -53 -92 11 -56 41 -69 165 -71 58 -1 113
-2 121 -3 11 -1 15 -13 16 -44 3 -140 67 -434 119 -552 8 -16 25 -57 38 -90
65 -157 198 -365 320 -499 9 -11 17 -23 17 -28 0 -4 -39 -47 -86 -95 -83 -84
-86 -88 -81 -125 6 -48 28 -69 76 -75 38 -5 42 -3 126 78 47 46 88 85 90 87 2
2 38 -24 81 -58 335 -267 726 -420 1119 -439 20 -1 21 -7 20 -108 -1 -60 3
-120 8 -135 19 -59 100 -74 143 -27 16 18 19 38 20 140 1 66 3 121 6 124 5 5
51 12 134 20 34 3 86 10 115 16 30 6 68 13 84 16 56 9 198 53 289 89 175 69
384 194 521 310 35 30 66 54 70 54 3 0 42 -36 85 -80 44 -44 91 -82 105 -86
39 -10 73 4 90 36 28 55 21 73 -70 165 -53 52 -83 90 -79 97 4 7 35 46 68 88
81 99 146 199 211 323 59 112 125 282 125 321 0 14 -13 37 -29 53 l-29 29 19
85 c10 46 21 108 25 138 3 30 8 62 9 70 2 9 4 36 4 61 l1 45 148 -1 c160 -2
203 5 225 39 20 31 14 84 -14 110 -21 20 -34 22 -146 22 -102 0 -123 3 -124
15 -1 40 -9 104 -23 200 -53 348 -215 697 -449 964 l-34 39 83 83 c92 92 105
119 81 170 -12 25 -24 34 -51 39 -45 9 -64 -2 -155 -94 l-77 -78 -70 59 c-251
213 -608 376 -924 423 -25 4 -56 8 -70 10 -14 2 -52 7 -84 10 -33 3 -62 8 -65
10 -3 3 -6 54 -7 113 -2 138 0 129 -29 157 -28 28 -70 32 -102 10z"/>
<path d="M937 4549 c-10 -6 -99 -91 -198 -190 -164 -165 -179 -183 -179 -215
0 -48 37 -84 86 -84 33 0 49 13 225 188 174 173 189 192 189 224 0 20 -8 44
-19 57 -22 25 -78 36 -104 20z"/>
<path d="M4093 4542 c-28 -24 -39 -72 -23 -102 6 -12 92 -102 190 -201 160
-161 182 -179 212 -179 53 1 83 30 83 83 0 43 -1 45 -182 226 -160 161 -187
183 -220 188 -28 4 -44 0 -60 -15z"/>
<path d="M44 2868 c-40 -19 -44 -48 -44 -309 0 -279 4 -301 63 -313 46 -9 53
-8 81 20 l26 27 0 258 c0 168 -4 267 -11 282 -19 41 -71 57 -115 35z"/>
<path d="M4994 2868 c-40 -19 -44 -47 -44 -317 l0 -259 24 -23 c42 -40 102
-35 129 10 15 25 17 62 17 280 0 162 -4 259 -11 274 -19 41 -71 57 -115 35z"/>
<path d="M593 1045 c-27 -19 -39 -75 -23 -105 13 -25 345 -357 371 -371 54
-28 119 14 119 78 0 35 -10 48 -189 225 -170 169 -193 188 -223 188 -18 0 -43
-7 -55 -15z"/>
<path d="M4435 1051 c-11 -5 -100 -91 -197 -190 -161 -163 -178 -183 -178
-214 0 -48 26 -77 77 -84 l41 -5 187 185 c167 166 187 190 191 224 3 27 -1 45
-13 61 -20 25 -76 37 -108 23z"/>
<path d="M2284 158 c-22 -10 -44 -47 -44 -73 0 -27 22 -63 47 -74 33 -15 513
-15 547 0 50 23 58 98 14 139 -21 19 -34 20 -282 19 -158 0 -269 -4 -282 -11z"/>
</g>
</svg>
